<svg width="309" height="186" viewBox="0 0 309 186" fill="none" xmlns="http://www.w3.org/2000/svg">
<path d="M88.429 72.384C76.461 72.384 67.597 68.992 61.837 62.208C59.789 59.776 58.125 56.544 56.845 52.512C55.565 48.48 54.925 43.584 54.925 37.824C54.925 32.064 55.853 26.912 57.709 22.368C59.629 17.76 62.221 14.208 65.485 11.712C71.821 7.04 79.469 4.704 88.429 4.704C91.309 4.704 94.125 4.928 96.877 5.376C99.629 5.76 101.677 6.176 103.021 6.62399L105.037 7.296L104.749 8.256C99.757 6.528 94.317 5.664 88.429 5.664C81.645 5.664 75.981 7.872 71.437 12.288C67.981 15.552 65.549 20.352 64.141 26.688C63.309 30.272 62.893 34.656 62.893 39.84C62.893 45.024 63.629 49.824 65.101 54.24C66.573 58.592 68.237 61.824 70.093 63.936C72.013 66.048 74.317 67.744 77.005 69.024C79.693 70.24 81.837 70.944 83.437 71.136C85.037 71.328 86.925 71.424 89.101 71.424C91.341 71.424 94.317 71.168 98.029 70.656V50.88H86.413V49.92H110.125V50.88H105.997V69.792C101.133 71.52 95.277 72.384 88.429 72.384ZM126.626 72C120.994 72 117.442 70.528 115.97 67.584C115.65 66.944 115.49 66.368 115.49 65.856V0.0959988H122.21V65.184C122.21 67.04 122.562 68.48 123.266 69.504C124.034 70.464 124.802 70.976 125.57 71.04L126.626 71.232H129.602V72H126.626ZM154.811 72.384C148.091 72.384 142.619 70.464 138.395 66.624C134.171 62.784 132.059 56.864 132.059 48.864C132.059 40.864 134.235 34.656 138.587 30.24C143.003 25.824 148.571 23.616 155.291 23.616C162.075 23.616 167.579 25.536 171.803 29.376C176.027 33.216 178.139 39.136 178.139 47.136C178.139 55.136 175.931 61.344 171.515 65.76C167.163 70.176 161.595 72.384 154.811 72.384ZM155.483 24.384C150.619 24.384 146.587 26.56 143.387 30.912C140.187 35.2 138.587 41.216 138.587 48.96C138.587 56.64 140.059 62.336 143.003 66.048C145.947 69.76 149.851 71.616 154.715 71.616C159.579 71.616 163.611 69.472 166.811 65.184C170.011 60.832 171.611 54.816 171.611 47.136C171.611 39.392 170.139 33.664 167.195 29.952C164.251 26.24 160.347 24.384 155.483 24.384ZM249.015 24.576L249.591 24C249.847 24.128 250.167 24.512 250.551 25.152C250.999 25.792 251.255 26.368 251.319 26.88C251.447 27.392 251.511 27.872 251.511 28.32C251.511 30.048 251.127 31.808 250.359 33.6L232.887 72H231.927L218.103 34.848L201.207 72H200.247L182.391 24H189.111L203.799 63.744L217.623 33.696L214.071 24H220.791L235.479 63.744L249.399 33.6C250.167 32.256 250.551 30.656 250.551 28.8C250.551 26.944 250.039 25.536 249.015 24.576ZM38.7561 117.8V118.76H8.51613V147.56H36.5481V148.52H8.51613V184.04H40.8681V185H0.548125V117.8H38.7561ZM75.2001 140.36C74.1761 139.528 72.5121 138.824 70.2081 138.248C67.9681 137.672 66.2721 137.384 65.1201 137.384C63.9681 137.384 63.2961 137.384 63.1041 137.384C59.6481 137.448 57.1521 138.344 55.6161 140.072C54.0801 141.736 53.3121 143.624 53.3121 145.736C53.3121 147.848 53.9841 149.64 55.3281 151.112C56.6721 152.52 58.3361 153.64 60.3201 154.472C62.3681 155.24 64.5441 156.136 66.8481 157.16C69.2161 158.184 71.3921 159.24 73.3761 160.328C75.4241 161.352 77.1201 162.888 78.4641 164.936C79.8081 166.92 80.4801 169.416 80.4801 172.424C80.4801 175.432 79.4241 177.992 77.3121 180.104C75.2001 182.216 72.8321 183.624 70.2081 184.328C67.6481 185.032 64.8641 185.384 61.8561 185.384C55.3281 185.384 50.4321 183.944 47.1681 181.064L47.7441 180.488C49.0241 181.704 50.9121 182.696 53.4081 183.464C55.9681 184.232 58.4321 184.616 60.8001 184.616C64.5761 184.616 67.6801 183.592 70.1121 181.544C72.6081 179.432 73.8561 176.84 73.8561 173.768C73.8561 170.632 72.9281 168.136 71.0721 166.28C69.2161 164.36 66.9441 162.888 64.2561 161.864C61.6321 160.776 58.9761 159.72 56.2881 158.696C53.6001 157.608 51.3281 156.136 49.4721 154.28C47.6161 152.36 46.6881 150.152 46.6881 147.656C46.6881 145.16 47.2641 143.144 48.4161 141.608C49.5681 140.008 51.1041 138.888 53.0241 138.248C56.2881 137.16 59.5521 136.616 62.8161 136.616C68.3201 136.616 72.6081 137.64 75.6801 139.688L75.2001 140.36ZM114.763 140.36C113.739 139.528 112.075 138.824 109.771 138.248C107.531 137.672 105.835 137.384 104.683 137.384C103.531 137.384 102.859 137.384 102.667 137.384C99.2106 137.448 96.7146 138.344 95.1786 140.072C93.6426 141.736 92.8746 143.624 92.8746 145.736C92.8746 147.848 93.5466 149.64 94.8906 151.112C96.2346 152.52 97.8986 153.64 99.8826 154.472C101.931 155.24 104.107 156.136 106.411 157.16C108.779 158.184 110.955 159.24 112.939 160.328C114.987 161.352 116.683 162.888 118.027 164.936C119.371 166.92 120.043 169.416 120.043 172.424C120.043 175.432 118.987 177.992 116.875 180.104C114.763 182.216 112.395 183.624 109.771 184.328C107.211 185.032 104.427 185.384 101.419 185.384C94.8906 185.384 89.9946 183.944 86.7306 181.064L87.3066 180.488C88.5866 181.704 90.4746 182.696 92.9706 183.464C95.5306 184.232 97.9946 184.616 100.363 184.616C104.139 184.616 107.243 183.592 109.675 181.544C112.171 179.432 113.419 176.84 113.419 173.768C113.419 170.632 112.491 168.136 110.635 166.28C108.779 164.36 106.507 162.888 103.819 161.864C101.195 160.776 98.5386 159.72 95.8506 158.696C93.1626 157.608 90.8906 156.136 89.0346 154.28C87.1786 152.36 86.2506 150.152 86.2506 147.656C86.2506 145.16 86.8266 143.144 87.9786 141.608C89.1306 140.008 90.6666 138.888 92.5866 138.248C95.8506 137.16 99.1146 136.616 102.379 136.616C107.883 136.616 112.171 137.64 115.243 139.688L114.763 140.36ZM133.759 161.576C133.759 169.512 135.135 175.336 137.887 179.048C140.703 182.76 144.383 184.616 148.927 184.616C155.327 184.616 161.023 183.656 166.015 181.736L166.303 182.408C161.183 184.392 155.391 185.384 148.927 185.384C142.527 185.384 137.311 183.464 133.279 179.624C129.247 175.784 127.231 169.864 127.231 161.864C127.231 153.864 129.343 147.656 133.567 143.24C137.791 138.824 143.167 136.616 149.695 136.616C154.943 136.616 159.359 138.184 162.943 141.32C166.527 144.456 168.319 149.096 168.319 155.24C168.319 155.56 168.319 155.88 168.319 156.2H134.047C133.855 157.928 133.759 159.72 133.759 161.576ZM161.791 155.432C161.727 149.288 160.543 144.744 158.239 141.8C155.935 138.856 152.959 137.384 149.311 137.384C145.663 137.384 142.399 138.984 139.519 142.184C136.703 145.384 134.911 149.8 134.143 155.432H161.791ZM212.071 185C209.447 185 207.431 184.424 206.023 183.272C204.679 182.12 203.975 180.968 203.911 179.816L203.815 178.184V148.04C203.815 142.984 202.503 139.752 199.879 138.344C198.535 137.704 196.871 137.384 194.887 137.384C190.791 137.384 187.111 139.016 183.847 142.28C180.583 145.48 178.951 148.36 178.951 150.92V185H172.231V137H178.951V147.944C180.039 145.192 182.055 142.632 184.999 140.264C187.943 137.832 191.175 136.616 194.695 136.616C198.215 136.616 201.063 136.968 203.239 137.672C205.479 138.312 207.111 139.24 208.135 140.456C209.735 142.44 210.535 145 210.535 148.136V178.184C210.535 180.04 210.887 181.48 211.591 182.504C212.359 183.464 213.127 183.976 213.895 184.04L214.951 184.232H217.927V185H212.071ZM244.288 137.384C239.744 137.384 235.936 139.56 232.864 143.912C229.856 148.264 228.352 154.28 228.352 161.96C228.352 169.64 229.728 175.336 232.48 179.048C235.296 182.76 238.976 184.616 243.52 184.616C249.216 184.616 254.272 183.656 258.688 181.736L258.976 182.408C254.432 184.392 249.12 185.384 243.04 185.384C236.96 185.384 231.904 183.464 227.872 179.624C223.84 175.784 221.824 169.864 221.824 161.864C221.824 153.864 223.936 147.656 228.16 143.24C232.384 138.824 237.76 136.616 244.288 136.616C247.936 136.616 251.296 137.448 254.368 139.112C257.504 140.776 259.808 143.304 261.28 146.696H255.136C254.176 143.56 252.704 141.224 250.72 139.688C248.8 138.152 246.656 137.384 244.288 137.384ZM273.634 161.576C273.634 169.512 275.01 175.336 277.762 179.048C280.578 182.76 284.258 184.616 288.802 184.616C295.202 184.616 300.898 183.656 305.89 181.736L306.178 182.408C301.058 184.392 295.266 185.384 288.802 185.384C282.402 185.384 277.186 183.464 273.154 179.624C269.122 175.784 267.106 169.864 267.106 161.864C267.106 153.864 269.218 147.656 273.442 143.24C277.666 138.824 283.042 136.616 289.57 136.616C294.818 136.616 299.234 138.184 302.818 141.32C306.402 144.456 308.194 149.096 308.194 155.24C308.194 155.56 308.194 155.88 308.194 156.2H273.922C273.73 157.928 273.634 159.72 273.634 161.576ZM301.666 155.432C301.602 149.288 300.418 144.744 298.114 141.8C295.81 138.856 292.834 137.384 289.186 137.384C285.538 137.384 282.274 138.984 279.394 142.184C276.578 145.384 274.786 149.8 274.018 155.432H301.666Z" fill="black"/>
</svg>
